<?xml version="1.0" standalone="no"?>
<!DOCTYPE svg PUBLIC "-//W3C//DTD SVG 20010904//EN"
 "http://www.w3.org/TR/2001/REC-SVG-20010904/DTD/svg10.dtd">
<svg version="1.0" xmlns="http://www.w3.org/2000/svg"
 width="840.000000pt" height="459.000000pt" viewBox="0 0 840.000000 459.000000"
 preserveAspectRatio="xMidYMid meet">

<g transform="translate(0.000000,459.000000) scale(0.100000,-0.100000)"
fill="#000000" stroke="none">
<path d="M7315 4089 c-94 -28 -226 -63 -550 -148 l-140 -37 -104 -179 c-57
-99 -128 -222 -158 -274 -30 -51 -52 -95 -50 -97 2 -3 53 9 113 25 60 17 237
64 394 106 193 51 289 81 298 93 7 9 43 69 79 132 178 308 233 404 233 407 0
5 -7 3 -115 -28z"/>
<path d="M7557 3864 c-65 -114 -116 -208 -114 -210 4 -4 317 82 324 90 6 6
-78 326 -86 326 -3 0 -59 -93 -124 -206z"/>
<path d="M6135 3774 c-66 -19 -241 -67 -389 -107 l-270 -72 -89 -155 c-49 -85
-117 -202 -150 -259 -75 -127 -83 -146 -61 -137 9 3 62 18 118 32 55 14 155
40 221 59 66 18 192 52 279 75 88 23 167 45 176 50 10 5 66 94 125 197 60 103
128 222 152 263 23 41 43 78 43 83 0 12 -30 6 -155 -29z"/>
<path d="M5010 3471 c-309 -82 -398 -106 -530 -142 -80 -22 -148 -43 -152 -47
-3 -4 -57 -95 -118 -202 -62 -107 -130 -226 -152 -263 -23 -37 -38 -70 -35
-73 6 -6 81 12 317 76 96 26 245 67 330 89 85 23 160 47 166 54 10 10 124 205
242 412 18 33 43 75 54 93 19 30 19 32 1 31 -10 0 -65 -13 -123 -28z"/>
<path d="M7510 3411 c-36 -9 -65 -21 -65 -27 0 -5 31 -108 70 -228 l70 -218
30 5 c16 3 43 10 58 16 33 13 35 -12 -27 275 -30 140 -45 191 -56 193 -8 0
-44 -6 -80 -16z"/>
<path d="M7301 3354 c-24 -7 -45 -15 -47 -17 -2 -2 3 -26 10 -53 38 -127 54
-194 48 -194 -4 0 -38 50 -77 111 l-69 111 -39 -6 c-21 -4 -51 -12 -66 -19
l-29 -12 80 -295 c44 -162 83 -299 88 -303 4 -5 35 0 68 10 l60 18 -34 120
c-18 65 -31 121 -29 123 4 4 45 -58 106 -160 18 -32 40 -58 49 -58 37 1 115
28 118 41 1 8 -33 145 -76 304 -87 322 -78 306 -161 279z"/>
<path d="M6770 3224 c-83 -26 -123 -78 -122 -157 1 -61 80 -360 108 -408 33
-56 67 -74 143 -74 58 0 75 4 116 30 64 40 88 84 81 150 -7 72 -84 353 -109
397 -38 69 -122 93 -217 62z m67 -106 c6 -7 33 -101 61 -208 46 -172 50 -196
37 -209 -10 -10 -18 -12 -24 -6 -12 12 -111 373 -111 402 0 33 20 43 37 21z"/>
<path d="M3940 3185 c-41 -12 -283 -77 -580 -156 -63 -16 -129 -35 -147 -40
-27 -9 -44 -31 -119 -162 -48 -84 -119 -205 -157 -270 -38 -65 -67 -120 -64
-123 5 -5 53 7 282 69 72 20 218 59 325 88 107 28 200 57 207 63 11 11 300
507 310 533 6 15 2 15 -57 -2z"/>
<path d="M6525 3145 c-5 -2 -36 -11 -67 -20 -32 -8 -58 -21 -58 -28 0 -13 151
-589 157 -596 6 -8 153 33 153 42 0 9 -84 327 -120 457 -10 36 -24 84 -30 108
-10 41 -14 44 -35 37z"/>
<path d="M6187 3056 c-86 -24 -160 -46 -163 -49 -4 -4 0 -30 8 -59 16 -56 16
-56 82 -47 l28 4 64 -235 c35 -129 68 -238 72 -242 5 -5 137 26 149 36 1 1
-27 109 -62 240 -35 132 -62 243 -59 247 2 5 20 11 39 15 20 3 37 9 39 13 6 9
-26 121 -33 120 -3 0 -77 -20 -164 -43z"/>
<path d="M5750 2943 c-112 -58 -121 -109 -56 -338 54 -195 67 -226 105 -258
41 -34 93 -41 166 -22 48 12 69 25 103 60 37 38 42 49 42 89 0 52 -18 144 -29
151 -8 4 -139 -30 -148 -38 -2 -3 4 -32 13 -65 19 -67 15 -92 -15 -92 -16 0
-24 13 -40 68 -47 159 -89 334 -84 348 3 8 15 14 26 12 21 -3 23 -9 52 -109
l16 -57 70 18 c39 10 73 21 76 24 9 9 -26 129 -48 165 -46 76 -150 94 -249 44z"/>
<path d="M7653 2921 c-28 -9 -55 -19 -59 -23 -7 -8 14 -106 25 -112 12 -8 123
27 128 40 6 16 -21 107 -33 110 -5 1 -32 -5 -61 -15z"/>
<path d="M2740 2864 c-47 -12 -175 -47 -285 -77 -110 -30 -249 -67 -308 -82
-59 -16 -114 -33 -122 -39 -8 -6 -61 -92 -118 -191 -57 -99 -125 -217 -152
-263 -26 -45 -45 -85 -42 -88 3 -3 92 18 199 46 478 128 594 161 614 169 11 5
47 56 79 113 33 56 101 175 152 262 51 88 93 163 93 168 0 11 -11 9 -110 -18z"/>
<path d="M5468 2863 c-41 -11 -58 -20 -58 -32 0 -9 27 -117 60 -240 60 -224
68 -265 51 -275 -18 -11 -34 27 -76 186 -74 277 -86 323 -89 326 -5 4 -129
-28 -143 -36 -12 -7 104 -457 131 -509 34 -66 104 -93 190 -74 96 21 156 82
156 156 0 17 -29 138 -64 270 -71 270 -60 254 -158 228z"/>
<path d="M4910 2714 c-52 -13 -100 -26 -107 -29 -8 -3 -1 -42 23 -132 19 -70
55 -204 80 -298 25 -93 49 -173 53 -177 6 -7 137 25 148 35 2 2 -12 64 -32
136 -19 73 -35 134 -35 137 0 2 9 4 20 4 25 0 34 -19 69 -150 19 -71 33 -106
44 -108 25 -5 127 28 127 42 0 18 -59 226 -70 247 -6 10 -26 23 -44 30 l-35
13 25 22 c29 28 30 52 4 137 -38 122 -88 139 -270 91z m126 -130 c19 -44 15
-88 -8 -92 -12 -2 -20 11 -32 51 -21 71 -20 77 5 77 14 0 25 -11 35 -36z"/>
<path d="M4581 2626 c-85 -23 -157 -48 -159 -55 -2 -6 2 -34 8 -62 13 -55 6
-52 84 -33 18 4 26 1 30 -13 3 -10 30 -115 62 -234 31 -119 60 -222 63 -228 5
-7 28 -5 75 9 38 11 71 22 74 25 3 3 -23 110 -57 237 -34 128 -61 238 -61 244
0 7 16 15 36 18 19 4 37 13 40 21 7 18 -18 108 -31 111 -6 1 -79 -17 -164 -40z"/>
<path d="M1565 2550 c-96 -27 -546 -148 -631 -170 -39 -10 -46 -17 -102 -113
-141 -241 -262 -451 -259 -453 1 -1 56 12 122 31 101 28 484 130 634 169 42
11 48 17 101 106 102 172 260 447 260 454 0 9 -16 6 -125 -24z"/>
<path d="M7932 2531 l-132 -36 -121 -210 c-66 -115 -127 -221 -135 -233 -9
-13 -14 -26 -11 -28 2 -3 85 17 183 45 99 27 244 66 324 87 80 20 146 38 148
39 1 1 -9 42 -23 91 -14 49 -30 109 -36 134 -21 93 -41 150 -52 149 -7 -1 -72
-17 -145 -38z"/>
<path d="M4212 2540 c-59 -12 -102 -39 -129 -80 -27 -39 -29 -77 -8 -148 20
-66 53 -105 107 -125 24 -9 68 -25 100 -37 44 -16 59 -28 72 -54 20 -43 21
-85 1 -92 -24 -10 -42 13 -55 66 -7 28 -17 50 -23 50 -7 0 -39 -8 -72 -18 -70
-21 -72 -30 -27 -122 35 -71 74 -93 153 -87 66 6 119 28 160 69 24 24 29 38
29 77 0 111 -54 206 -133 235 -23 9 -68 25 -99 36 -52 19 -59 25 -69 61 -9 29
-9 43 -1 51 17 17 42 1 48 -32 4 -17 10 -33 15 -35 4 -3 38 2 74 11 65 16 67
18 61 45 -10 50 -34 97 -58 113 -31 20 -93 27 -146 16z"/>
<path d="M3910 2446 c-26 -7 -46 -19 -48 -28 -2 -8 11 -66 27 -129 17 -62 29
-114 28 -116 -2 -1 -37 49 -77 112 -41 63 -77 115 -81 115 -28 0 -112 -26
-116 -36 -4 -10 143 -590 153 -602 6 -9 117 23 121 35 3 8 -8 66 -26 130 -17
64 -29 118 -28 120 2 1 36 -51 75 -116 l73 -119 62 16 c37 11 63 23 64 32 2 8
-32 145 -75 305 -56 210 -81 290 -92 292 -8 0 -35 -4 -60 -11z"/>
<path d="M7026 2289 c-241 -64 -442 -121 -447 -126 -8 -8 -100 -164 -219 -371
-29 -51 -51 -94 -49 -96 2 -2 92 20 199 49 107 30 299 81 425 115 127 35 239
66 251 70 12 5 42 44 66 87 25 43 85 145 132 227 48 81 86 152 84 156 -2 4
-200 -46 -442 -111z"/>
<path d="M3390 2321 c-76 -24 -123 -66 -139 -127 -9 -35 -6 -59 29 -196 48
-188 73 -258 103 -286 53 -50 137 -56 217 -14 75 38 95 68 94 145 0 71 -73
350 -107 409 -34 62 -120 92 -197 69z m48 -113 c9 -12 42 -125 93 -326 22 -84
18 -112 -13 -99 -14 5 -118 363 -118 404 0 33 19 43 38 21z"/>
<path d="M390 2234 c-85 -24 -160 -46 -166 -48 -8 -3 3 -56 32 -163 24 -87 46
-164 49 -172 5 -13 254 400 255 422 0 10 4 11 -170 -39z"/>
<path d="M2945 2198 c-52 -18 -93 -56 -110 -102 -16 -42 -16 -49 0 -122 30
-136 85 -317 107 -352 50 -81 201 -84 288 -6 44 40 64 89 55 137 -10 55 -27
117 -32 117 -6 0 -123 -29 -140 -35 -9 -3 -8 -17 3 -57 7 -29 14 -66 14 -81 0
-24 -4 -28 -22 -25 -27 4 -31 14 -88 231 -46 171 -49 197 -20 197 23 0 33 -17
53 -94 9 -32 18 -60 21 -63 5 -5 93 13 133 28 21 8 21 9 6 66 -34 132 -77 173
-178 172 -33 0 -73 -5 -90 -11z"/>
<path d="M6095 2040 c-77 -21 -219 -59 -315 -85 -367 -98 -326 -83 -359 -134
-58 -93 -243 -422 -239 -426 2 -3 72 14 154 36 82 22 246 66 364 99 118 32
229 61 247 65 25 5 38 18 61 58 16 29 78 135 136 236 58 101 106 185 106 187
0 7 -11 4 -155 -36z"/>
<path d="M2367 2032 c-59 -16 -110 -32 -113 -35 -5 -5 144 -577 156 -597 11
-18 150 19 150 39 0 9 -15 72 -34 139 -28 103 -31 125 -19 129 26 10 43 -22
74 -138 17 -63 34 -117 37 -120 8 -7 122 19 134 30 5 4 -8 63 -28 131 -35 127
-55 160 -95 160 -24 0 -24 11 1 33 26 22 26 80 0 150 -41 109 -91 124 -263 79z
m111 -104 c5 -7 15 -33 22 -57 10 -37 9 -46 -4 -59 -10 -10 -19 -13 -24 -7
-13 14 -41 122 -34 129 9 10 29 7 40 -6z"/>
<path d="M2065 1953 c-138 -38 -135 -36 -125 -75 73 -275 153 -564 158 -570 6
-6 249 56 259 66 3 2 -1 30 -8 61 l-13 57 -35 -8 c-79 -16 -84 -14 -100 43
-17 65 -12 79 33 87 19 4 38 11 40 15 3 5 -1 32 -10 61 -14 47 -17 51 -40 46
-13 -3 -35 -9 -48 -12 -23 -5 -26 -1 -40 46 -9 29 -14 56 -11 60 3 4 25 13 50
19 49 12 51 16 31 81 -16 55 -22 56 -141 23z"/>
<path d="M1615 1832 c-72 -20 -100 -31 -99 -42 1 -17 154 -593 159 -598 4 -5
228 58 268 75 39 17 67 56 67 92 0 11 -14 73 -30 138 -63 246 -82 303 -111
334 -25 26 -33 29 -91 28 -34 0 -108 -13 -163 -27z m135 -114 c16 -37 90 -321
90 -346 0 -21 -24 -41 -36 -29 -6 6 -104 367 -104 385 0 21 40 13 50 -10z"/>
<path d="M1366 1766 c-22 -7 -42 -18 -44 -24 -2 -6 11 -61 28 -122 17 -62 30
-114 27 -116 -2 -3 -37 45 -77 107 l-72 111 -38 -6 c-21 -3 -51 -11 -65 -16
-24 -9 -26 -14 -19 -43 13 -61 153 -569 157 -574 3 -2 33 3 66 13 47 13 60 20
57 33 -32 114 -56 215 -54 223 2 6 33 -37 68 -96 35 -60 69 -110 75 -113 11
-4 122 21 130 29 2 2 -23 103 -55 223 -33 121 -70 257 -81 303 -24 91 -25 92
-103 68z"/>
<path d="M5025 1755 c-44 -13 -224 -61 -400 -108 -223 -60 -324 -92 -333 -104
-19 -25 -262 -447 -262 -454 0 -6 65 10 385 96 72 20 182 49 245 66 63 16 132
34 152 40 29 7 43 20 62 52 13 23 74 129 135 234 61 106 111 195 111 198 0 7
-2 6 -95 -20z"/>
<path d="M938 1652 c-32 -9 -58 -19 -58 -23 0 -4 28 -110 62 -236 64 -236 72
-283 50 -290 -18 -7 -34 38 -97 282 -32 121 -61 224 -65 228 -7 8 -128 -20
-144 -34 -11 -9 98 -427 129 -497 21 -45 31 -56 71 -74 36 -15 59 -19 95 -15
90 11 178 77 180 135 2 48 -1 64 -64 305 -70 267 -56 248 -159 219z"/>
<path d="M3945 1465 c-9 -3 -279 -76 -645 -173 l-145 -39 -107 -184 c-59 -101
-121 -206 -138 -234 -16 -27 -26 -51 -22 -53 5 -1 69 13 143 33 74 20 220 58
324 86 105 28 225 60 268 72 l78 22 131 225 c72 124 133 231 135 238 5 12 -2
14 -22 7z"/>
<path d="M2540 1089 c-140 -38 -318 -86 -395 -107 l-140 -37 -78 -135 c-173
-301 -189 -331 -186 -334 2 -2 85 17 184 44 99 26 252 66 340 89 246 65 289
79 301 98 30 48 246 427 251 439 3 8 -1 14 -8 13 -8 0 -129 -32 -269 -70z"/>
<path d="M1250 744 c-212 -57 -391 -107 -398 -111 -7 -4 -45 -63 -83 -130
l-70 -121 22 -91 c13 -55 27 -90 33 -88 10 4 140 40 543 149 l113 30 61 107
c34 58 70 122 81 141 45 79 102 176 116 198 13 21 13 22 -9 21 -13 -1 -197
-48 -409 -105z"/>
</g>
</svg>
